<?xml version="1.0" standalone="no"?>
<!DOCTYPE svg PUBLIC "-//W3C//DTD SVG 20010904//EN"
 "http://www.w3.org/TR/2001/REC-SVG-20010904/DTD/svg10.dtd">
<svg version="1.0" xmlns="http://www.w3.org/2000/svg"
 width="310.000000pt" height="310.000000pt" viewBox="0 0 310.000000 310.000000"
 preserveAspectRatio="xMidYMid meet">
<metadata>
Created by potrace 1.11, written by Peter Selinger 2001-2013
</metadata>
<g transform="translate(0.000000,310.000000) scale(0.100000,-0.100000)"
fill="#000000" stroke="none">
<path d="M1345 3084 c-180 -26 -348 -79 -507 -161 -149 -76 -265 -160 -388
-283 -215 -215 -354 -470 -422 -771 -20 -92 -23 -130 -23 -324 0 -194 3 -232
23 -324 46 -206 136 -409 255 -578 79 -112 248 -281 360 -360 169 -119 372
-209 578 -255 92 -20 130 -23 324 -23 194 0 232 3 324 23 206 46 409 136 578
255 112 79 281 248 360 360 119 169 209 372 255 578 20 92 23 130 23 324 0
194 -3 232 -23 324 -46 206 -136 409 -255 578 -79 112 -248 281 -360 360 -164
116 -356 202 -557 250 -91 22 -133 25 -310 28 -113 2 -218 1 -235 -1z"/>
</g>
</svg>
